<svg width="30" height="28" viewBox="0 0 30 28" fill="none" xmlns="http://www.w3.org/2000/svg">
<rect width="30" height="28" rx="7" fill="#6A2AF2"/>
<path d="M18.5381 22.3C18.2848 22.3 18.0981 22.24 17.9781 22.12C17.8581 22.0133 17.7648 21.92 17.6981 21.84L17.1381 21.14C16.7781 21.18 16.3915 21.2 15.9781 21.2C14.6715 21.2 13.5248 21 12.5381 20.6C11.5648 20.2 10.7915 19.6 10.2181 18.8C9.65813 17.9867 9.35146 16.9867 9.29813 15.8C9.25813 14.6533 9.25813 13.48 9.29813 12.28C9.35146 11.1067 9.65813 10.1133 10.2181 9.3C10.7781 8.48667 11.5515 7.86667 12.5381 7.44C13.5248 7.01333 14.6715 6.8 15.9781 6.8C17.2848 6.8 18.4315 7.01333 19.4181 7.44C20.4048 7.86667 21.1781 8.48667 21.7381 9.3C22.3115 10.1133 22.6181 11.1067 22.6581 12.28C22.6981 13.48 22.6981 14.6533 22.6581 15.8C22.5781 17.3067 22.0981 18.5133 21.2181 19.42L22.7981 21.68C22.8115 21.6933 22.8248 21.72 22.8381 21.76C22.8515 21.8 22.8581 21.8333 22.8581 21.86C22.8848 21.98 22.8515 22.08 22.7581 22.16C22.6781 22.2533 22.5781 22.3 22.4581 22.3H18.5381ZM17.2581 7.88C17.2581 7.73333 17.2315 7.63333 17.1781 7.58C17.1381 7.52667 17.0448 7.47333 16.8981 7.42C16.7781 7.38 16.6848 7.38 16.6181 7.42C16.5515 7.44667 16.4781 7.51333 16.3981 7.62C16.3181 7.72667 16.2715 7.82 16.2581 7.9C16.2581 7.96667 16.2981 8.05333 16.3781 8.16C16.4581 8.28 16.5315 8.36 16.5981 8.4C16.6781 8.42667 16.7848 8.42 16.9181 8.38C17.0648 8.32667 17.1581 8.26667 17.1981 8.2C17.2381 8.13333 17.2581 8.02667 17.2581 7.88ZM14.4381 7.64C14.3581 7.57333 14.2848 7.54667 14.2181 7.56C14.1648 7.57333 14.0915 7.60667 13.9981 7.66C13.9048 7.71333 13.8515 7.76667 13.8381 7.82C13.8381 7.86 13.8448 7.92667 13.8581 8.02C13.8848 8.12667 13.9048 8.20667 13.9181 8.26C13.9448 8.3 14.0115 8.32667 14.1181 8.34C14.2248 8.35333 14.2915 8.34 14.3181 8.3C14.3581 8.26 14.4048 8.19333 14.4581 8.1C14.4981 7.99333 14.5248 7.91333 14.5381 7.86C14.5515 7.79333 14.5181 7.72 14.4381 7.64ZM15.8181 7.78C15.7648 7.67333 15.6981 7.62667 15.6181 7.64C15.5515 7.64 15.4581 7.64667 15.3381 7.66C15.2448 7.67333 15.1781 7.7 15.1381 7.74C15.1115 7.78 15.0915 7.84667 15.0781 7.94C15.0648 8.07333 15.0381 8.18 14.9981 8.26C14.9715 8.32667 15.0181 8.39333 15.1381 8.46C15.2581 8.52667 15.3515 8.54667 15.4181 8.52C15.4981 8.49333 15.5915 8.43333 15.6981 8.34C15.7915 8.23333 15.8448 8.14667 15.8581 8.08C15.8848 8.01333 15.8715 7.91333 15.8181 7.78ZM13.2181 9.1C13.0848 8.99333 12.9781 8.9 12.8981 8.82C12.8315 8.74 12.7248 8.74667 12.5781 8.84C12.4315 8.93333 12.3581 9.03333 12.3581 9.14C12.3581 9.23333 12.3781 9.36667 12.4181 9.54C12.4581 9.7 12.5048 9.82 12.5581 9.9C12.6115 9.96667 12.7181 10.0067 12.8781 10.02C13.0381 10.0333 13.1448 10.0067 13.1981 9.94C13.2515 9.86 13.3115 9.74667 13.3781 9.6C13.4315 9.48 13.4381 9.39333 13.3981 9.34C13.3715 9.27333 13.3115 9.19333 13.2181 9.1ZM15.9381 8.92C15.8448 8.90667 15.7715 8.90667 15.7181 8.92C15.6648 8.93333 15.6181 8.98 15.5781 9.06C15.5381 9.14 15.5315 9.2 15.5581 9.24C15.5981 9.28 15.6448 9.32667 15.6981 9.38C15.7781 9.46 15.8315 9.52667 15.8581 9.58C15.8981 9.62 15.9648 9.62 16.0581 9.58C16.1515 9.54 16.1915 9.49333 16.1781 9.44C16.1648 9.37333 16.1515 9.28667 16.1381 9.18C16.1248 9.1 16.1048 9.04 16.0781 9C16.0648 8.96 16.0181 8.93333 15.9381 8.92ZM19.2381 9.28C18.9981 9.2 18.8381 9.24 18.7581 9.4C18.6915 9.54667 18.5848 9.72 18.4381 9.92C18.2915 10.12 18.1715 10.28 18.0781 10.4C17.9848 10.5067 18.0048 10.6533 18.1381 10.84C18.2848 11.04 18.4248 11.12 18.5581 11.08C18.6915 11.0267 18.8781 10.96 19.1181 10.88C19.2915 10.8267 19.4048 10.76 19.4581 10.68C19.5248 10.6 19.5581 10.4667 19.5581 10.28C19.5581 10.0133 19.5648 9.8 19.5781 9.64C19.6048 9.48 19.4915 9.36 19.2381 9.28ZM20.9381 9.44L20.6981 9.38L20.6181 9.68L20.8781 9.84L21.0981 9.64L20.9381 9.44ZM17.5381 10.36L17.3781 10.32L17.2981 10.44L17.3781 10.6L17.5381 10.52V10.36ZM10.7981 10.34C10.6515 10.34 10.5381 10.3533 10.4581 10.38C10.3781 10.3933 10.3181 10.4733 10.2781 10.62C10.2248 10.7667 10.2181 10.88 10.2581 10.96C10.2981 11.0267 10.3781 11.1067 10.4981 11.2C10.5915 11.28 10.6648 11.2933 10.7181 11.24C10.7848 11.1867 10.8715 11.12 10.9781 11.04C11.0581 10.9867 11.1181 10.94 11.1581 10.9C11.2115 10.86 11.2248 10.7867 11.1981 10.68C11.1581 10.56 11.1115 10.4733 11.0581 10.42C11.0181 10.3667 10.9315 10.34 10.7981 10.34ZM15.9781 17.3C16.4181 17.3 16.7715 17.1733 17.0381 16.92C17.3048 16.6533 17.4448 16.24 17.4581 15.68C17.4981 14.5333 17.4981 13.4133 17.4581 12.32C17.4448 11.76 17.2981 11.3533 17.0181 11.1C16.7515 10.8333 16.4048 10.7 15.9781 10.7C15.5515 10.7 15.2048 10.8333 14.9381 11.1C14.6715 11.3533 14.5248 11.76 14.4981 12.32C14.4581 13.4133 14.4581 14.5333 14.4981 15.68C14.5248 16.24 14.6648 16.6533 14.9181 16.92C15.1848 17.1733 15.5381 17.3 15.9781 17.3ZM13.3381 11.24C13.2715 11.1467 13.2048 11.0933 13.1381 11.08C13.0715 11.0667 12.9781 11.08 12.8581 11.12C12.7381 11.16 12.6448 11.2 12.5781 11.24C12.5248 11.28 12.4981 11.3667 12.4981 11.5C12.4981 11.6333 12.5248 11.7267 12.5781 11.78C12.6315 11.82 12.7181 11.86 12.8381 11.9C13.0381 11.9667 13.1981 11.92 13.3181 11.76C13.3848 11.6533 13.4181 11.5667 13.4181 11.5C13.4315 11.4333 13.4048 11.3467 13.3381 11.24ZM10.5981 11.74C10.4781 11.7267 10.3915 11.74 10.3381 11.78C10.2981 11.8067 10.2448 11.8733 10.1781 11.98C10.1381 12.06 10.1381 12.12 10.1781 12.16C10.2315 12.1867 10.2915 12.24 10.3581 12.32C10.4115 12.3733 10.4515 12.42 10.4781 12.46C10.5181 12.5 10.5781 12.5 10.6581 12.46C10.7915 12.4067 10.8515 12.2933 10.8381 12.12C10.8248 12.0133 10.8048 11.9333 10.7781 11.88C10.7648 11.8133 10.7048 11.7667 10.5981 11.74ZM21.6781 11.86L21.4381 11.78L21.3781 12.04L21.5781 12.18L21.7781 12.06L21.6781 11.86ZM19.2781 12.58C19.1181 12.5267 18.9848 12.56 18.8781 12.68C18.8248 12.7733 18.7915 12.8533 18.7781 12.92C18.7648 12.9733 18.7915 13.0467 18.8581 13.14C18.9248 13.2333 18.9848 13.2867 19.0381 13.3C19.1048 13.3 19.1915 13.28 19.2981 13.24C19.4048 13.2133 19.4781 13.18 19.5181 13.14C19.5581 13.0867 19.5781 13.0067 19.5781 12.9C19.5781 12.7933 19.5515 12.72 19.4981 12.68C19.4581 12.64 19.3848 12.6067 19.2781 12.58ZM11.8581 12.78C11.6981 12.7133 11.5781 12.7133 11.4981 12.78C11.4315 12.8333 11.3381 12.9267 11.2181 13.06C11.0981 13.18 11.0115 13.28 10.9581 13.36C10.9181 13.44 10.9381 13.56 11.0181 13.72C11.1115 13.8667 11.1981 13.9533 11.2781 13.98C11.3715 14.0067 11.5115 14 11.6981 13.96C11.8848 13.9333 12.0248 13.9 12.1181 13.86C12.2248 13.8067 12.2915 13.6867 12.3181 13.5C12.3448 13.2867 12.3248 13.14 12.2581 13.06C12.1915 12.9667 12.0581 12.8733 11.8581 12.78ZM21.5981 13.12C21.4915 13.0533 21.3848 13.0733 21.2781 13.18C21.2248 13.2333 21.1848 13.28 21.1581 13.32C21.1448 13.36 21.1581 13.42 21.1981 13.5C21.2248 13.5667 21.2581 13.6067 21.2981 13.62C21.3515 13.62 21.4181 13.6133 21.4981 13.6C21.5781 13.5867 21.6448 13.5733 21.6981 13.56C21.7515 13.5467 21.7848 13.5 21.7981 13.42C21.8115 13.3267 21.7981 13.2667 21.7581 13.24C21.7315 13.2 21.6781 13.16 21.5981 13.12ZM13.5381 13.8H13.3381V14L13.4781 14.12L13.6581 13.98L13.5381 13.8ZM18.5781 14.22C18.5515 14.14 18.4781 14.0933 18.3581 14.08C18.2381 14.0667 18.1648 14.1067 18.1381 14.2C18.0981 14.2933 18.1181 14.3733 18.1981 14.44C18.2781 14.52 18.3648 14.5267 18.4581 14.46C18.5515 14.4067 18.5915 14.3267 18.5781 14.22ZM10.3981 14.32L10.1981 14.26L10.1181 14.5L10.3181 14.56L10.4381 14.48L10.3981 14.32ZM12.7981 14.82C12.6515 14.74 12.5315 14.6867 12.4381 14.66C12.3448 14.62 12.2381 14.6667 12.1181 14.8C11.9715 14.9333 11.8781 15.0533 11.8381 15.16C11.8115 15.2667 11.8448 15.4067 11.9381 15.58C12.0181 15.7533 12.1115 15.8467 12.2181 15.86C12.3248 15.86 12.4715 15.8467 12.6581 15.82C12.8448 15.78 12.9848 15.74 13.0781 15.7C13.1715 15.66 13.2381 15.5467 13.2781 15.36C13.3048 15.1867 13.2715 15.0733 13.1781 15.02C13.0848 14.9667 12.9581 14.9 12.7981 14.82ZM10.6581 14.82C10.5648 14.82 10.5048 14.84 10.4781 14.88C10.4515 14.92 10.4181 14.9867 10.3781 15.08C10.3381 15.1867 10.3715 15.2867 10.4781 15.38C10.5448 15.4333 10.5981 15.4733 10.6381 15.5C10.6781 15.5267 10.7381 15.5133 10.8181 15.46C10.8848 15.42 10.9048 15.38 10.8781 15.34C10.8648 15.2867 10.8515 15.22 10.8381 15.14C10.8115 15.0467 10.7981 14.9733 10.7981 14.92C10.7981 14.8667 10.7515 14.8333 10.6581 14.82ZM20.2981 17.02C20.1648 16.7933 20.0581 16.5933 19.9781 16.42C19.9115 16.2467 19.8115 16.1267 19.6781 16.06C19.5581 15.98 19.3715 15.96 19.1181 16C18.7181 16.08 18.4648 16.22 18.3581 16.42C18.2648 16.62 18.1915 16.9267 18.1381 17.34C18.0981 17.7267 18.1181 18.0133 18.1981 18.2C18.2915 18.3867 18.5115 18.56 18.8581 18.72C19.1381 18.8533 19.3715 18.96 19.5581 19.04C19.7581 19.12 19.9448 19.14 20.1181 19.1C20.3048 19.06 20.4981 18.9267 20.6981 18.7C20.8981 18.4867 20.9848 18.3 20.9581 18.14C20.9315 17.98 20.8448 17.82 20.6981 17.66C20.5648 17.4867 20.4315 17.2733 20.2981 17.02ZM15.5781 18.6C15.5515 18.3733 15.4915 18.22 15.3981 18.14C15.3048 18.06 15.1448 18 14.9181 17.96C14.7048 17.92 14.5515 17.9333 14.4581 18C14.3648 18.0533 14.2648 18.1733 14.1581 18.36C14.0648 18.5467 14.0248 18.6933 14.0381 18.8C14.0515 18.9067 14.1248 19.0333 14.2581 19.18C14.4048 19.3267 14.5315 19.42 14.6381 19.46C14.7448 19.4867 14.8981 19.46 15.0981 19.38C15.2981 19.2733 15.4315 19.1733 15.4981 19.08C15.5781 18.9867 15.6048 18.8267 15.5781 18.6ZM13.0781 18.06C13.0115 17.9933 12.9515 17.96 12.8981 17.96C12.8581 17.96 12.7915 17.9867 12.6981 18.04C12.6315 18.0667 12.5915 18.1067 12.5781 18.16C12.5781 18.2 12.5848 18.26 12.5981 18.34C12.6115 18.42 12.6248 18.4867 12.6381 18.54C12.6515 18.5933 12.6981 18.6267 12.7781 18.64C12.9381 18.6667 13.0581 18.6067 13.1381 18.46C13.2181 18.3133 13.1981 18.18 13.0781 18.06ZM11.7381 18.3C11.6581 18.2733 11.5915 18.3 11.5381 18.38C11.4981 18.4333 11.4581 18.48 11.4181 18.52C11.3915 18.5467 11.4048 18.5867 11.4581 18.64C11.5115 18.7333 11.6115 18.7533 11.7581 18.7C11.8781 18.6733 11.9381 18.6 11.9381 18.48C11.9381 18.4133 11.9181 18.3733 11.8781 18.36C11.8515 18.3333 11.8048 18.3133 11.7381 18.3ZM17.1981 18.52C17.1581 18.44 17.1115 18.3933 17.0581 18.38C17.0181 18.3533 16.9448 18.3467 16.8381 18.36C16.7315 18.3733 16.6515 18.3933 16.5981 18.42C16.5448 18.4333 16.5048 18.4933 16.4781 18.6C16.4648 18.7067 16.4848 18.7733 16.5381 18.8C16.5915 18.8267 16.6648 18.86 16.7581 18.9C16.8515 18.9533 16.9248 19.0067 16.9781 19.06C17.0315 19.1 17.0981 19.08 17.1781 19C17.2715 18.92 17.3115 18.8467 17.2981 18.78C17.2848 18.7133 17.2515 18.6267 17.1981 18.52ZM18.5781 19.98C18.4848 19.9 18.4115 19.84 18.3581 19.8C18.3181 19.76 18.2448 19.7667 18.1381 19.82C18.0048 19.8867 17.9048 19.9533 17.8381 20.02C17.7848 20.0733 17.7781 20.1733 17.8181 20.32C17.8448 20.4667 17.8915 20.5533 17.9581 20.58C18.0381 20.6067 18.1515 20.6333 18.2981 20.66C18.4181 20.6733 18.4981 20.66 18.5381 20.62C18.5915 20.5667 18.6381 20.4867 18.6781 20.38C18.7181 20.2867 18.7248 20.2133 18.6981 20.16C18.6848 20.1067 18.6448 20.0467 18.5781 19.98ZM13.5181 20.1L13.3981 19.98L13.2181 20.08L13.2581 20.28L13.4381 20.22L13.5181 20.1ZM19.1381 20.96L18.9581 20.94L19.0581 21.2L19.2181 21.12L19.1381 20.96Z" fill="white"/>
</svg>
